<?xml version="1.0" encoding="utf-8"?>
<!-- Generator: Adobe Illustrator 23.0.3, SVG Export Plug-In . SVG Version: 6.00 Build 0)  -->
<svg version="1.1" id="Camada_1" xmlns="http://www.w3.org/2000/svg" xmlns:xlink="http://www.w3.org/1999/xlink" x="0px" y="0px"
	 viewBox="0 0 160 160" style="enable-background:new 0 0 160 160;" xml:space="preserve">
<style type="text/css">
	.st0{fill:#594B93;}
	.st1{fill:#FFFFFF;}
</style>
<rect class="st0" width="160" height="160"/>
<g>
	<path class="st1" d="M42.1,105.8v-15h1.7v15H42.1z"/>
	<path class="st1" d="M62,105.8v-7.3c0-0.9-0.2-1.6-0.6-2c-0.4-0.4-1-0.7-1.8-0.7c-1.1,0-1.8,0.3-2.3,0.9s-0.8,1.5-0.8,2.8v6.3h-1.7
		v-7.3c0-0.9-0.2-1.6-0.6-2c-0.4-0.4-1-0.7-1.8-0.7c-1.1,0-1.8,0.3-2.3,1c-0.5,0.6-0.7,1.7-0.7,3.1v5.9h-1.7V94.6h1.4l0.3,1.5h0.1
		c0.3-0.5,0.8-1,1.4-1.3c0.6-0.3,1.2-0.5,2-0.5c1.8,0,2.9,0.6,3.4,1.9h0.1c0.3-0.6,0.8-1.1,1.5-1.4s1.4-0.5,2.2-0.5
		c1.3,0,2.2,0.3,2.9,1c0.6,0.7,0.9,1.7,0.9,3.1v7.3H62z"/>
	<path class="st1" d="M74.2,105.8l-0.3-1.6h-0.1c-0.6,0.7-1.1,1.2-1.7,1.4c-0.6,0.2-1.3,0.4-2.1,0.4c-1.1,0-2-0.3-2.6-0.9
		s-0.9-1.4-0.9-2.5c0-2.3,1.8-3.5,5.4-3.6l1.9-0.1v-0.7c0-0.9-0.2-1.5-0.6-2c-0.4-0.4-1-0.6-1.8-0.6c-0.9,0-2,0.3-3.2,0.9l-0.5-1.3
		c0.6-0.3,1.2-0.5,1.8-0.7s1.3-0.3,2-0.3c1.3,0,2.3,0.3,3,0.9c0.6,0.6,1,1.5,1,2.9v7.7H74.2z M70.3,104.7c1.1,0,1.9-0.3,2.5-0.9
		c0.6-0.6,0.9-1.4,0.9-2.4v-1l-1.7,0.1c-1.4,0-2.3,0.3-2.9,0.6c-0.6,0.4-0.9,1-0.9,1.7c0,0.6,0.2,1.1,0.6,1.4S69.6,104.7,70.3,104.7
		z"/>
	<path class="st1" d="M88.1,94.6v1.1L86,95.9c0.2,0.2,0.4,0.6,0.5,0.9c0.2,0.4,0.2,0.8,0.2,1.3c0,1.1-0.4,2-1.1,2.6s-1.8,1-3.1,1
		c-0.3,0-0.6,0-0.9-0.1c-0.7,0.4-1.1,0.9-1.1,1.4c0,0.3,0.1,0.5,0.4,0.7c0.3,0.1,0.7,0.2,1.3,0.2h2c1.2,0,2.2,0.3,2.8,0.8
		s1,1.3,1,2.2c0,1.2-0.5,2.2-1.5,2.8c-1,0.7-2.5,1-4.4,1c-1.5,0-2.6-0.3-3.4-0.8c-0.8-0.5-1.2-1.3-1.2-2.3c0-0.7,0.2-1.3,0.7-1.8
		s1.1-0.8,1.8-1c-0.3-0.1-0.5-0.3-0.7-0.6c-0.2-0.3-0.3-0.6-0.3-1c0-0.4,0.1-0.8,0.3-1.1s0.6-0.6,1-0.9c-0.6-0.2-1.1-0.6-1.4-1.2
		s-0.5-1.2-0.5-2c0-1.2,0.4-2.2,1.1-2.8c0.7-0.7,1.8-1,3.1-1c0.6,0,1.1,0.1,1.6,0.2H88.1z M79.2,107.7c0,0.6,0.3,1.1,0.8,1.4
		s1.2,0.5,2.2,0.5c1.4,0,2.5-0.2,3.2-0.6c0.7-0.4,1-1,1-1.7c0-0.6-0.2-1-0.6-1.3c-0.4-0.2-1.1-0.4-2.1-0.4h-2
		c-0.8,0-1.4,0.2-1.8,0.6S79.2,107,79.2,107.7z M80.1,98.2c0,0.8,0.2,1.4,0.7,1.8c0.4,0.4,1.1,0.6,1.9,0.6c1.7,0,2.5-0.8,2.5-2.4
		c0-1.7-0.8-2.5-2.5-2.5c-0.8,0-1.4,0.2-1.8,0.6C80.3,96.7,80.1,97.4,80.1,98.2z"/>
	<path class="st1" d="M95.2,106.1c-1.7,0-3-0.5-3.9-1.5c-1-1-1.4-2.4-1.4-4.2c0-1.8,0.4-3.3,1.3-4.3c0.9-1.1,2.1-1.6,3.6-1.6
		c1.4,0,2.5,0.5,3.3,1.4c0.8,0.9,1.2,2.1,1.2,3.7v1.1h-7.7c0,1.3,0.4,2.3,1,3c0.6,0.7,1.5,1,2.7,1c1.2,0,2.4-0.3,3.6-0.8v1.5
		c-0.6,0.3-1.2,0.4-1.7,0.6C96.6,106,95.9,106.1,95.2,106.1z M94.7,95.8c-0.9,0-1.6,0.3-2.2,0.9c-0.5,0.6-0.9,1.4-0.9,2.4h5.9
		c0-1.1-0.2-1.9-0.7-2.5C96.3,96.1,95.6,95.8,94.7,95.8z"/>
	<path class="st1" d="M116.5,105.8v-7.3c0-0.9-0.2-1.6-0.6-2c-0.4-0.4-1-0.7-1.8-0.7c-1.1,0-1.8,0.3-2.3,0.9s-0.8,1.5-0.8,2.8v6.3
		h-1.7v-7.3c0-0.9-0.2-1.6-0.6-2c-0.4-0.4-1-0.7-1.8-0.7c-1.1,0-1.8,0.3-2.3,1c-0.5,0.6-0.7,1.7-0.7,3.1v5.9h-1.7V94.6h1.4l0.3,1.5
		h0.1c0.3-0.5,0.8-1,1.4-1.3c0.6-0.3,1.2-0.5,2-0.5c1.8,0,2.9,0.6,3.4,1.9h0.1c0.3-0.6,0.8-1.1,1.5-1.4s1.4-0.5,2.2-0.5
		c1.3,0,2.2,0.3,2.9,1c0.6,0.7,0.9,1.7,0.9,3.1v7.3H116.5z"/>
	<path class="st1" d="M22.8,116.8c0-0.4,0.1-0.7,0.3-0.9c0.2-0.2,0.4-0.3,0.7-0.3c0.3,0,0.5,0.1,0.7,0.3s0.3,0.5,0.3,0.9
		s-0.1,0.7-0.3,0.9c-0.2,0.2-0.4,0.3-0.7,0.3c-0.3,0-0.5-0.1-0.7-0.3C22.9,117.4,22.8,117.1,22.8,116.8z M24.6,131h-1.7v-11.2h1.7
		V131z"/>
	<path class="st1" d="M35.9,131v-7.3c0-0.9-0.2-1.6-0.6-2.1s-1.1-0.7-2-0.7c-1.2,0-2,0.3-2.6,1s-0.8,1.7-0.8,3.1v5.9h-1.7v-11.2h1.4
		l0.3,1.5H30c0.3-0.6,0.8-1,1.5-1.3c0.6-0.3,1.3-0.5,2.1-0.5c1.4,0,2.4,0.3,3.1,1c0.7,0.7,1,1.7,1,3.1v7.3H35.9z"/>
	<path class="st1" d="M48.8,129.5L48.8,129.5c-0.9,1.1-2.1,1.7-3.6,1.7c-1.5,0-2.6-0.5-3.4-1.5s-1.2-2.4-1.2-4.3s0.4-3.3,1.2-4.3
		s2-1.5,3.4-1.5c1.5,0,2.7,0.6,3.5,1.7h0.1l-0.1-0.8l0-0.8v-4.6h1.7v16H49L48.8,129.5z M45.4,129.8c1.2,0,2-0.3,2.5-0.9
		c0.5-0.6,0.8-1.7,0.8-3.1v-0.4c0-1.6-0.3-2.7-0.8-3.4c-0.5-0.7-1.4-1-2.5-1c-1,0-1.8,0.4-2.3,1.2c-0.5,0.8-0.8,1.9-0.8,3.3
		c0,1.4,0.3,2.5,0.8,3.3S44.3,129.8,45.4,129.8z"/>
	<path class="st1" d="M53.8,116.8c0-0.4,0.1-0.7,0.3-0.9c0.2-0.2,0.4-0.3,0.7-0.3c0.3,0,0.5,0.1,0.7,0.3s0.3,0.5,0.3,0.9
		s-0.1,0.7-0.3,0.9c-0.2,0.2-0.4,0.3-0.7,0.3c-0.3,0-0.5-0.1-0.7-0.3C53.9,117.4,53.8,117.1,53.8,116.8z M55.7,131H54v-11.2h1.7V131
		z"/>
	<path class="st1" d="M66.6,128c0,1-0.4,1.9-1.2,2.4s-1.9,0.9-3.3,0.9c-1.5,0-2.7-0.2-3.5-0.7V129c0.5,0.3,1.1,0.5,1.7,0.6
		s1.2,0.2,1.8,0.2c0.9,0,1.6-0.1,2.1-0.4c0.5-0.3,0.7-0.7,0.7-1.3c0-0.4-0.2-0.8-0.6-1.1c-0.4-0.3-1.1-0.7-2.2-1.1
		c-1-0.4-1.8-0.7-2.2-1c-0.4-0.3-0.8-0.6-1-1c-0.2-0.4-0.3-0.8-0.3-1.3c0-0.9,0.4-1.6,1.1-2.2c0.7-0.5,1.8-0.8,3.1-0.8
		c1.2,0,2.4,0.2,3.5,0.7l-0.6,1.4c-1.1-0.5-2.1-0.7-3.1-0.7c-0.8,0-1.4,0.1-1.8,0.4s-0.6,0.6-0.6,1c0,0.3,0.1,0.6,0.2,0.8
		c0.2,0.2,0.4,0.4,0.7,0.6s1,0.5,2,0.8c1.3,0.5,2.2,1,2.7,1.5S66.6,127.2,66.6,128z"/>
	<path class="st1" d="M74.6,131.3c-0.7,0-1.4-0.1-2-0.4c-0.6-0.3-1.1-0.7-1.5-1.2h-0.1c0.1,0.7,0.1,1.3,0.1,1.9v4.6h-1.7v-16.3h1.4
		l0.2,1.5H71c0.4-0.6,0.9-1.1,1.5-1.3s1.2-0.4,2-0.4c1.5,0,2.6,0.5,3.5,1.5c0.8,1,1.2,2.4,1.2,4.3c0,1.8-0.4,3.3-1.2,4.3
		C77.2,130.7,76,131.3,74.6,131.3z M74.3,121.1c-1.1,0-2,0.3-2.5,1s-0.8,1.6-0.8,3v0.4c0,1.6,0.3,2.7,0.8,3.4c0.5,0.7,1.4,1,2.5,1
		c1,0,1.7-0.4,2.3-1.2s0.8-1.9,0.8-3.3c0-1.4-0.3-2.5-0.8-3.2C76.1,121.4,75.3,121.1,74.3,121.1z"/>
	<path class="st1" d="M91.9,125.4c0,1.8-0.5,3.3-1.4,4.3c-0.9,1-2.2,1.5-3.8,1.5c-1,0-1.9-0.2-2.7-0.7c-0.8-0.5-1.4-1.1-1.8-2
		s-0.6-1.9-0.6-3.1c0-1.8,0.5-3.3,1.4-4.3c0.9-1,2.2-1.5,3.8-1.5c1.6,0,2.8,0.5,3.7,1.6C91.4,122.2,91.9,123.6,91.9,125.4z
		 M83.3,125.4c0,1.4,0.3,2.5,0.9,3.3s1.4,1.1,2.5,1.1s2-0.4,2.5-1.1c0.6-0.7,0.9-1.8,0.9-3.3c0-1.4-0.3-2.5-0.9-3.3
		c-0.6-0.7-1.4-1.1-2.6-1.1c-1.1,0-2,0.4-2.5,1.1S83.3,124,83.3,125.4z"/>
	<path class="st1" d="M102.6,131v-7.3c0-0.9-0.2-1.6-0.6-2.1s-1.1-0.7-2-0.7c-1.2,0-2,0.3-2.6,1s-0.8,1.7-0.8,3.1v5.9h-1.7v-11.2
		h1.4l0.3,1.5h0.1c0.3-0.6,0.8-1,1.5-1.3c0.6-0.3,1.3-0.5,2.1-0.5c1.4,0,2.4,0.3,3.1,1c0.7,0.7,1,1.7,1,3.1v7.3H102.6z"/>
	<path class="st1" d="M107.7,118.1c0.3-0.4,0.7-0.9,1.1-1.5c0.4-0.6,0.7-1.1,0.9-1.6h2.1v0.2c-0.3,0.4-0.7,1-1.3,1.6
		c-0.6,0.6-1.1,1.2-1.5,1.5h-1.1V118.1z M109.5,131h-1.7v-11.2h1.7V131z"/>
	<path class="st1" d="M115.5,131l-4.3-11.2h1.8l2.4,6.7c0.5,1.6,0.9,2.6,1,3h0.1c0.1-0.4,0.3-1.1,0.7-2.3c0.4-1.1,1.3-3.6,2.7-7.4
		h1.8l-4.3,11.2H115.5z"/>
	<path class="st1" d="M128.3,131.3c-1.7,0-3-0.5-3.9-1.5c-1-1-1.4-2.4-1.4-4.2c0-1.8,0.4-3.3,1.3-4.3c0.9-1.1,2.1-1.6,3.6-1.6
		c1.4,0,2.5,0.5,3.3,1.4c0.8,0.9,1.2,2.1,1.2,3.7v1.1h-7.7c0,1.3,0.4,2.3,1,3c0.6,0.7,1.5,1,2.7,1c1.2,0,2.4-0.3,3.6-0.8v1.5
		c-0.6,0.3-1.2,0.4-1.7,0.6C129.7,131.2,129.1,131.3,128.3,131.3z M127.9,121c-0.9,0-1.6,0.3-2.2,0.9c-0.5,0.6-0.9,1.4-0.9,2.4h5.9
		c0-1.1-0.2-1.9-0.7-2.5C129.5,121.3,128.8,121,127.9,121z"/>
	<path class="st1" d="M137.1,131h-1.7v-16h1.7V131z"/>
</g>
<g>
	<g>
		<g>
			<path class="st1" d="M81.9,13c-16.9,0-30.6,13.7-30.6,30.6s13.7,30.6,30.6,30.6s30.6-13.7,30.6-30.6S98.8,13,81.9,13z M81.9,71.6
				c-15.5,0-28-12.6-28-28s12.6-28,28-28s28,12.6,28,28S97.4,71.6,81.9,71.6z"/>
			<path class="st1" d="M94.3,31.2c-0.5-0.5-1.3-0.5-1.8,0L81.9,41.8L71.4,31.2c-0.5-0.5-1.3-0.5-1.8,0c-0.5,0.5-0.5,1.3,0,1.8
				l10.6,10.6L69.6,54.1c-0.5,0.5-0.5,1.3,0,1.8c0.2,0.2,0.6,0.4,0.9,0.4c0.3,0,0.7-0.1,0.9-0.4l10.6-10.6L92.5,56
				c0.2,0.2,0.6,0.4,0.9,0.4c0.3,0,0.7-0.1,0.9-0.4c0.5-0.5,0.5-1.3,0-1.8L83.7,43.6L94.3,33C94.8,32.5,94.8,31.7,94.3,31.2z"/>
		</g>
	</g>
</g>
</svg>
